<svg width="103" height="32" viewBox="0 0 103 32" fill="none" xmlns="http://www.w3.org/2000/svg">
<g id="Group 1">
<path id="Vector" d="M0 22.6046H6.61398C6.85246 24.9318 8.36647 27.2221 12.4316 27.2221C16.1378 27.2221 17.6912 25.5255 17.6912 23.8288C17.6912 22.1322 16.7745 20.9491 13.4686 20.3965L9.80391 19.805C3.54875 18.7801 1.03924 16.0564 1.03924 11.3998C1.03924 6.74324 5.26186 2.9946 12.0749 2.9946C19.6844 2.9946 23.4301 7.13761 23.9486 11.9133H17.3346C16.9364 9.66415 15.4618 7.77033 12.0356 7.77033C8.80842 7.77033 7.53289 9.42797 7.53289 10.8884C7.53289 12.6631 8.52838 13.493 11.8365 14.0455L15.1839 14.5591C21.3188 15.545 24.7056 18.3467 24.7056 23.2395C24.7056 28.5266 20.2029 32 12.5125 32C4.8221 32 0.358813 28.0889 0 22.6046Z" fill="white"/>
<path id="Vector_2" d="M26.4726 21.5046C26.4726 15.7801 30.8943 11.0423 37.5577 11.0423C44.2211 11.0423 48.6428 15.7801 48.6428 21.5046C48.6428 27.2291 44.2211 32 37.5577 32C30.8943 32 26.4726 27.2291 26.4726 21.5046ZM42.1885 21.5046C42.1885 18.6629 40.3157 16.7691 37.5577 16.7691C34.7997 16.7691 32.9269 18.6629 32.9269 21.5046C32.9269 24.3463 34.7997 26.2401 37.5577 26.2401C40.3157 26.2401 42.1885 24.3463 42.1885 21.5046Z" fill="white"/>
<path id="Vector_3" d="M51.9726 11.6338H58.1118V13.805C59.1883 12.2665 60.9014 11.0423 63.6494 11.0423C66.5571 11.0423 68.4299 12.5417 69.467 14.3185C70.6222 12.6219 72.8538 11.0423 75.9212 11.0423C80.3429 11.0423 83.3316 13.6078 83.3316 18.5396V31.4041H76.9955L77.0348 19.4475C77.0348 17.1983 76.1181 15.935 73.9281 15.935C71.738 15.935 70.6615 17.4735 70.6615 19.961V31.4041H64.6842V19.4475C64.6842 17.1983 63.7675 15.935 61.5359 15.935C59.3042 15.935 58.3481 17.5536 58.3481 19.961V31.4041H51.9726V11.6338Z" fill="white"/>
<path id="Vector_4" d="M86.4994 22.6046H93.1134C93.3519 24.9318 94.8659 27.2221 98.931 27.2221C102.637 27.2221 104.191 25.5255 104.191 23.8288C104.191 22.1322 103.274 20.9491 99.968 20.3965L96.3033 19.805C90.0482 18.7801 87.5386 16.0564 87.5386 11.3998C87.5386 6.74324 91.7613 2.9946 98.5743 2.9946C106.184 2.9946 109.93 7.13761 110.448 11.9133H103.834C103.436 9.66415 101.961 7.77033 98.535 7.77033C95.3078 7.77033 94.0323 9.42797 94.0323 10.8884C94.0323 12.6631 95.0278 13.493 98.3359 14.0455L101.683 14.5591C107.818 15.545 111.205 18.3467 111.205 23.2395C111.205 28.5266 106.702 32 99.0119 32C91.3215 32 86.8582 28.0889 86.4994 22.6046Z" fill="white"/>
<path id="Vector_5" d="M113.4726 3.58395H119.888V13.805C120.964 12.2665 122.677 11.0423 125.425 11.0423C130.243 11.0423 133.232 15.1908 133.232 21.5046C133.232 27.8184 130.243 32 125.425 32C122.677 32 120.964 30.7758 119.888 29.1973V31.4041H113.4726V3.58395ZM119.888 21.5046C119.888 24.5866 121.761 26.2401 124.162 26.2401C126.562 26.2401 128.435 24.5866 128.435 21.5046C128.435 18.4226 126.562 16.7691 124.162 16.7691C121.761 16.7691 119.888 18.4226 119.888 21.5046Z" fill="white"/>
<path id="Vector_6" d="M136.4726 21.5046C136.4726 15.7801 140.894 11.0423 147.558 11.0423C154.221 11.0423 158.643 15.7801 158.643 21.5046C158.643 27.2291 154.221 32 147.558 32C140.894 32 136.4726 27.2291 136.4726 21.5046ZM152.189 21.5046C152.189 18.6629 150.316 16.7691 147.558 16.7691C144.8 16.7691 142.927 18.6629 142.927 21.5046C142.927 24.3463 144.8 26.2401 147.558 26.2401C150.316 26.2401 152.189 24.3463 152.189 21.5046Z" fill="white"/>
<path id="Vector_7" d="M161.9726 11.6338H168.388V31.4041H161.9726V11.6338ZM161.9726 3.58395H168.388V8.70628H161.9726V3.58395Z" fill="white"/>
<path id="Vector_8" d="M173.9726 11.6338H180.112V13.805C181.188 12.2665 182.901 11.0423 185.649 11.0423C190.071 11.0423 193.06 13.6078 193.06 18.5396V31.4041H186.684V19.4475C186.684 17.1983 185.767 15.935 183.536 15.935C181.304 15.935 180.348 17.5536 180.348 19.961V31.4041H173.9726V11.6338Z" fill="white"/>
</g>
</svg>